<svg xmlns="http://www.w3.org/2000/svg" width="174" height="22" viewBox="0 0 174 22"><defs><linearGradient id="crisp-grad" gradientUnits="userSpaceOnUse" x1="0" y1="0" x2="20939" y2="0"><stop offset="0%" stop-color="#FFD700"/><stop offset="50%" stop-color="#10B981"/><stop offset="100%" stop-color="#06B6D4"/></linearGradient></defs><g fill="url(#crisp-grad)" transform="translate(6, 15) scale(0.007812, -0.007812)"><path d="M1227 1474V1213H786V0H476V1213H33V1474ZM1932 827Q1760 827 1701 715Q1668 652 1668 521V0H1381V1090H1653V900Q1719 1009 1768 1049Q1848 1116 1976 1116Q1984 1116 1989.5 1115.5Q1995 1115 2014 1114V822Q1987 825 1966.0 826.0Q1945 827 1932 827ZM2624 286 2849 1090H3152L2778 18Q2670 -292 2607.0 -366.5Q2544 -441 2355 -441Q2317 -441 2294.0 -440.5Q2271 -440 2225 -437V-209L2261 -211Q2303 -213 2341.0 -208.0Q2379 -203 2405 -185Q2430 -168 2451.5 -114.0Q2473 -60 2469 -48L2069 1090H2386ZM4182 1090V0H3893V1090ZM4182 1483V1220H3893V1483ZM4957 203V-10L4822 -15Q4620 -22 4546 55Q4498 104 4498 206V877H4346V1080H4498V1384H4780V1080H4957V877H4780V301Q4780 234 4797.0 217.5Q4814 201 4901 201Q4914 201 4928.5 201.5Q4943 202 4957 203ZM6002 1090V0H5713V1090ZM6002 1483V1220H5713V1483ZM6791 879Q6646 879 6592 756Q6564 691 6564 590V0H6280V1088H6555V929Q6610 1013 6659 1050Q6747 1116 6882 1116Q7051 1116 7158.5 1027.5Q7266 939 7266 734V0H6974V663Q6974 749 6951 795Q6909 879 6791 879ZM8541 286 8766 1090H9069L8695 18Q8587 -292 8524.0 -366.5Q8461 -441 8272 -441Q8234 -441 8211.0 -440.5Q8188 -440 8142 -437V-209L8178 -211Q8220 -213 8258.0 -208.0Q8296 -203 8322 -185Q8347 -168 8368.5 -114.0Q8390 -60 8386 -48L7986 1090H8303ZM10146 952Q10284 779 10284 543Q10284 303 10146.0 132.5Q10008 -38 9727 -38Q9446 -38 9308.0 132.5Q9170 303 9170 543Q9170 779 9308.0 952.0Q9446 1125 9727 1125Q10008 1125 10146 952ZM9726 884Q9601 884 9533.5 795.5Q9466 707 9466 543Q9466 379 9533.5 290.0Q9601 201 9726 201Q9851 201 9918.0 290.0Q9985 379 9985 543Q9985 707 9918.0 795.5Q9851 884 9726 884ZM11187 154Q11183 149 11167.0 124.0Q11151 99 11129 80Q11062 20 10999.5 -2.0Q10937 -24 10853 -24Q10611 -24 10527 150Q10480 246 10480 433V1090H10772V433Q10772 340 10794 293Q10833 210 10947 210Q11093 210 11147 328Q11175 392 11175 497V1090H11464V0H11187ZM12287 827Q12115 827 12056 715Q12023 652 12023 521V0H11736V1090H12008V900Q12074 1009 12123 1049Q12203 1116 12331 1116Q12339 1116 12344.5 1115.5Q12350 1115 12369 1114V822Q12342 825 12321.0 826.0Q12300 827 12287 827ZM13697 -29Q13562 -29 13480 25Q13431 57 13374 137V0H13095V1472H13379V948Q13433 1024 13498 1064Q13575 1114 13694 1114Q13909 1114 14030.5 959.0Q14152 804 14152 559Q14152 305 14032.0 138.0Q13912 -29 13697 -29ZM13853 529Q13853 645 13823 721Q13766 865 13613 865Q13458 865 13400 724Q13370 649 13370 530Q13370 390 13432.0 298.0Q13494 206 13621 206Q13731 206 13792.0 295.0Q13853 384 13853 529ZM14904 827Q14732 827 14673 715Q14640 652 14640 521V0H14353V1090H14625V900Q14691 1009 14740 1049Q14820 1116 14948 1116Q14956 1116 14961.5 1115.5Q14967 1115 14986 1114V822Q14959 825 14938.0 826.0Q14917 827 14904 827ZM16062 952Q16200 779 16200 543Q16200 303 16062.0 132.5Q15924 -38 15643 -38Q15362 -38 15224.0 132.5Q15086 303 15086 543Q15086 779 15224.0 952.0Q15362 1125 15643 1125Q15924 1125 16062 952ZM15642 884Q15517 884 15449.5 795.5Q15382 707 15382 543Q15382 379 15449.5 290.0Q15517 201 15642 201Q15767 201 15834.0 290.0Q15901 379 15901 543Q15901 707 15834.0 795.5Q15767 884 15642 884ZM17231 0 17060 794 16887 0H16591L16285 1090H16591L16761 308L16918 1090H17207L17373 305L17543 1090H17840L17524 0ZM18748 1040Q18876 958 18895 758H18610Q18604 813 18579 845Q18532 903 18419 903Q18326 903 18286.5 874.0Q18247 845 18247 806Q18247 757 18289 735Q18331 712 18586 656Q18756 616 18841 535Q18925 453 18925 330Q18925 168 18804.5 65.5Q18684 -37 18432 -37Q18175 -37 18052.5 71.5Q17930 180 17930 348H18219Q18228 272 18258 240Q18311 183 18454 183Q18538 183 18587.5 208.0Q18637 233 18637 283Q18637 331 18597 356Q18557 381 18300 442Q18115 488 18039 557Q17963 625 17963 753Q17963 904 18081.5 1012.5Q18200 1121 18415 1121Q18619 1121 18748 1040ZM20069 320Q20058 223 19968 123Q19828 -36 19576 -36Q19368 -36 19209.0 98.0Q19050 232 19050 534Q19050 817 19193.5 968.0Q19337 1119 19566 1119Q19702 1119 19811.0 1068.0Q19920 1017 19991 907Q20055 810 20074 682Q20085 607 20083 466H19337Q19343 302 19440 236Q19499 195 19582 195Q19670 195 19725 245Q19755 272 19778 320ZM19787 654Q19780 767 19718.5 825.5Q19657 884 19566 884Q19467 884 19412.5 822.0Q19358 760 19344 654ZM20823 827Q20651 827 20592 715Q20559 652 20559 521V0H20272V1090H20544V900Q20610 1009 20659 1049Q20739 1116 20867 1116Q20875 1116 20880.5 1115.5Q20886 1115 20905 1114V822Q20878 825 20857.0 826.0Q20836 827 20823 827Z"/></g></svg>
